<svg xmlns="http://www.w3.org/2000/svg" viewBox="0 -100 512 512" width="32" height="32">
  <path fill="#000" d="M471.98 345.82L399.59 103.36c-2.94-10.25-11.71-17.36-22.31-17.36H82.73c-10.6 0-19.38 7.11-22.31 17.36L40.02 207.3l-0.06 0.17v1.72l-0.02 0.08v0.08c0 8.84 7.16 16 16 16h47.99v176c0 8.84 7.16 16 16 16h299.99c8.84 0 16-7.16 16-16V240h47.99c8.84 0 16-7.16 16-16 0-0.69-0.06-1.37-0.18-2.05zM176 304h-48V224h48v80zm112 0h-48V224h48v80zm112 0h-48V224h48v80z"/>
  <path fill="#c4c4c4" d="M224 240h-48v-16h48v16zm112 0h-48v-16h48v16z"/>
  <circle fill="#c4c4c4" cx="160" cy="368" r="16"/>
  <circle fill="#c4c4c4" cx="352" cy="368" r="16"/>
  <text fill="#000" x="100" y="90" font-size="120">SHOP</text>
</svg>