<svg id="visual" viewBox="0 0 900 600" width="900" height="600" xmlns="http://www.w3.org/2000/svg" xmlns:xlink="http://www.w3.org/1999/xlink" version="1.1"><path d="M0 157L13.7 166C27.3 175 54.7 193 82 195C109.3 197 136.7 183 163.8 191C191 199 218 229 245.2 230C272.3 231 299.7 203 327 195C354.3 187 381.7 199 409 190C436.3 181 463.7 151 491 138C518.3 125 545.7 129 573 125C600.3 121 627.7 109 654.8 104C682 99 709 101 736.2 128C763.3 155 790.7 207 818 214C845.3 221 872.7 183 886.3 164L900 145L900 0L886.3 0C872.7 0 845.3 0 818 0C790.7 0 763.3 0 736.2 0C709 0 682 0 654.8 0C627.7 0 600.3 0 573 0C545.7 0 518.3 0 491 0C463.7 0 436.3 0 409 0C381.7 0 354.3 0 327 0C299.7 0 272.3 0 245.2 0C218 0 191 0 163.8 0C136.7 0 109.3 0 82 0C54.7 0 27.3 0 13.7 0L0 0Z" fill="#c6bebb"></path><path d="M0 295L13.7 301C27.3 307 54.7 319 82 307C109.3 295 136.7 259 163.8 266C191 273 218 323 245.2 345C272.3 367 299.7 361 327 356C354.3 351 381.7 347 409 333C436.3 319 463.7 295 491 284C518.3 273 545.7 275 573 258C600.3 241 627.7 205 654.8 186C682 167 709 165 736.2 197C763.3 229 790.7 295 818 317C845.3 339 872.7 317 886.3 306L900 295L900 143L886.3 162C872.7 181 845.3 219 818 212C790.7 205 763.3 153 736.2 126C709 99 682 97 654.8 102C627.7 107 600.3 119 573 123C545.7 127 518.3 123 491 136C463.7 149 436.3 179 409 188C381.7 197 354.3 185 327 193C299.7 201 272.3 229 245.2 228C218 227 191 197 163.8 189C136.7 181 109.3 195 82 193C54.7 191 27.3 173 13.7 164L0 155Z" fill="#b9b0ab"></path><path d="M0 499L13.7 495C27.3 491 54.7 483 82 467C109.3 451 136.7 427 163.8 428C191 429 218 455 245.2 473C272.3 491 299.7 501 327 501C354.3 501 381.7 491 409 484C436.3 477 463.7 473 491 465C518.3 457 545.7 445 573 439C600.3 433 627.7 433 654.8 433C682 433 709 433 736.2 438C763.3 443 790.7 453 818 452C845.3 451 872.7 439 886.3 433L900 427L900 293L886.3 304C872.7 315 845.3 337 818 315C790.7 293 763.3 227 736.2 195C709 163 682 165 654.8 184C627.7 203 600.3 239 573 256C545.7 273 518.3 271 491 282C463.7 293 436.3 317 409 331C381.7 345 354.3 349 327 354C299.7 359 272.3 365 245.2 343C218 321 191 271 163.8 264C136.7 257 109.3 293 82 305C54.7 317 27.3 305 13.7 299L0 293Z" fill="#aba39c"></path><path d="M0 541L13.7 541C27.3 541 54.7 541 82 533C109.3 525 136.7 509 163.8 511C191 513 218 533 245.2 544C272.3 555 299.7 557 327 552C354.3 547 381.7 535 409 528C436.3 521 463.7 519 491 520C518.3 521 545.7 525 573 527C600.3 529 627.7 529 654.8 524C682 519 709 509 736.2 507C763.3 505 790.7 511 818 515C845.3 519 872.7 521 886.3 522L900 523L900 425L886.3 431C872.7 437 845.3 449 818 450C790.7 451 763.3 441 736.2 436C709 431 682 431 654.8 431C627.7 431 600.3 431 573 437C545.7 443 518.3 455 491 463C463.7 471 436.3 475 409 482C381.7 489 354.3 499 327 499C299.7 499 272.3 489 245.2 471C218 453 191 427 163.8 426C136.7 425 109.3 449 82 465C54.7 481 27.3 489 13.7 493L0 497Z" fill="#948d87"></path><path d="M0 601L13.7 601C27.3 601 54.7 601 82 601C109.3 601 136.7 601 163.8 601C191 601 218 601 245.2 601C272.3 601 299.7 601 327 601C354.3 601 381.7 601 409 601C436.3 601 463.7 601 491 601C518.3 601 545.7 601 573 601C600.3 601 627.7 601 654.8 601C682 601 709 601 736.2 601C763.3 601 790.7 601 818 601C845.3 601 872.7 601 886.3 601L900 601L900 521L886.3 520C872.7 519 845.3 517 818 513C790.7 509 763.3 503 736.2 505C709 507 682 517 654.8 522C627.7 527 600.3 527 573 525C545.7 523 518.3 519 491 518C463.7 517 436.3 519 409 526C381.7 533 354.3 545 327 550C299.7 555 272.3 553 245.2 542C218 531 191 511 163.8 509C136.7 507 109.3 523 82 531C54.7 539 27.3 539 13.7 539L0 539Z" fill="#7e7772"></path></svg>