<svg id="visual" viewBox="0 0 900 600" width="900" height="600" xmlns="http://www.w3.org/2000/svg" xmlns:xlink="http://www.w3.org/1999/xlink" version="1.1"><path d="M0 235L10 236C20 237 40 239 60 239C80 239 100 237 120 230C140 223 160 211 180 207C200 203 220 207 240 190C260 173 280 135 300 116C320 97 340 97 360 120C380 143 400 189 420 194C440 199 460 163 480 155C500 147 520 167 540 164C560 161 580 135 600 128C620 121 640 133 660 133C680 133 700 121 720 122C740 123 760 137 780 164C800 191 820 231 840 225C860 219 880 167 890 141L900 115L900 0L890 0C880 0 860 0 840 0C820 0 800 0 780 0C760 0 740 0 720 0C700 0 680 0 660 0C640 0 620 0 600 0C580 0 560 0 540 0C520 0 500 0 480 0C460 0 440 0 420 0C400 0 380 0 360 0C340 0 320 0 300 0C280 0 260 0 240 0C220 0 200 0 180 0C160 0 140 0 120 0C100 0 80 0 60 0C40 0 20 0 10 0L0 0Z" fill="#daa520"></path><path d="M0 367L10 353C20 339 40 311 60 301C80 291 100 299 120 295C140 291 160 275 180 280C200 285 220 311 240 293C260 275 280 213 300 190C320 167 340 183 360 216C380 249 400 299 420 297C440 295 460 241 480 229C500 217 520 247 540 241C560 235 580 193 600 183C620 173 640 195 660 206C680 217 700 217 720 228C740 239 760 261 780 277C800 293 820 303 840 283C860 263 880 213 890 188L900 163L900 113L890 139C880 165 860 217 840 223C820 229 800 189 780 162C760 135 740 121 720 120C700 119 680 131 660 131C640 131 620 119 600 126C580 133 560 159 540 162C520 165 500 145 480 153C460 161 440 197 420 192C400 187 380 141 360 118C340 95 320 95 300 114C280 133 260 171 240 188C220 205 200 201 180 205C160 209 140 221 120 228C100 235 80 237 60 237C40 237 20 235 10 234L0 233Z" fill="#a5770e"></path><path d="M0 409L10 394C20 379 40 349 60 338C80 327 100 335 120 336C140 337 160 331 180 337C200 343 220 361 240 344C260 327 280 275 300 259C320 243 340 263 360 295C380 327 400 371 420 364C440 357 460 299 480 291C500 283 520 325 540 317C560 309 580 251 600 242C620 233 640 273 660 291C680 309 700 305 720 307C740 309 760 317 780 334C800 351 820 377 840 365C860 353 880 303 890 278L900 253L900 161L890 186C880 211 860 261 840 281C820 301 800 291 780 275C760 259 740 237 720 226C700 215 680 215 660 204C640 193 620 171 600 181C580 191 560 233 540 239C520 245 500 215 480 227C460 239 440 293 420 295C400 297 380 247 360 214C340 181 320 165 300 188C280 211 260 273 240 291C220 309 200 283 180 278C160 273 140 289 120 293C100 297 80 289 60 299C40 309 20 337 10 351L0 365Z" fill="#724d00"></path><path d="M0 511L10 491C20 471 40 431 60 419C80 407 100 423 120 423C140 423 160 407 180 409C200 411 220 431 240 428C260 425 280 399 300 385C320 371 340 369 360 387C380 405 400 443 420 438C440 433 460 385 480 389C500 393 520 449 540 446C560 443 580 381 600 370C620 359 640 399 660 404C680 409 700 379 720 378C740 377 760 405 780 432C800 459 820 485 840 466C860 447 880 383 890 351L900 319L900 251L890 276C880 301 860 351 840 363C820 375 800 349 780 332C760 315 740 307 720 305C700 303 680 307 660 289C640 271 620 231 600 240C580 249 560 307 540 315C520 323 500 281 480 289C460 297 440 355 420 362C400 369 380 325 360 293C340 261 320 241 300 257C280 273 260 325 240 342C220 359 200 341 180 335C160 329 140 335 120 334C100 333 80 325 60 336C40 347 20 377 10 392L0 407Z" fill="#452500"></path><path d="M0 601L10 601C20 601 40 601 60 601C80 601 100 601 120 601C140 601 160 601 180 601C200 601 220 601 240 601C260 601 280 601 300 601C320 601 340 601 360 601C380 601 400 601 420 601C440 601 460 601 480 601C500 601 520 601 540 601C560 601 580 601 600 601C620 601 640 601 660 601C680 601 700 601 720 601C740 601 760 601 780 601C800 601 820 601 840 601C860 601 880 601 890 601L900 601L900 317L890 349C880 381 860 445 840 464C820 483 800 457 780 430C760 403 740 375 720 376C700 377 680 407 660 402C640 397 620 357 600 368C580 379 560 441 540 444C520 447 500 391 480 387C460 383 440 431 420 436C400 441 380 403 360 385C340 367 320 369 300 383C280 397 260 423 240 426C220 429 200 409 180 407C160 405 140 421 120 421C100 421 80 405 60 417C40 429 20 469 10 489L0 509Z" fill="#000000"></path></svg>