<svg xmlns="http://www.w3.org/2000/svg" viewBox="0 0 512 512" width="32" height="32">
  <path d="M472.6 151.1c.3 4.4.3 8.9.3 13.4 0 136.4-104 293.2-293.2 293.2-58.3 0-112.5-17-157.9-46.3 8.2.9 16.5 1.4 24.9 1.4 48 0 92.1-16.3 127-43.8-45.1-.8-83.1-30.6-96.2-71.5 6.3.9 12.6 1.4 19.2 1.4 9.3 0 18.3-1.3 26.8-3.7-46.4-9.3-81.4-50.2-81.4-99.2v-1.2c13.6 7.6 29.2 12.2 45.8 12.7-27.1-18.1-44.9-49.1-44.9-84.2 0-18.6 4.9-35.8 13.5-50.6C99 118 181.8 181 289.5 198c-1.1-4.4-1.7-9.1-1.7-13.8 0-33.5 27.1-60.6 60.6-60.6 17.4 0 33.1 7.3 44.1 19 13.8-2.7 26.8-7.7 38.5-14.5-4.5 14.2-13.9 26.2-26.2 33.8 12.1-1.4 23.8-4.7 34.5-9.5-8.1 11.9-18.5 22.5-30.5 31z"/>
</svg>