<svg id="visual" viewBox="0 0 960 540" width="960" height="540" xmlns="http://www.w3.org/2000/svg" xmlns:xlink="http://www.w3.org/1999/xlink" version="1.1"><rect x="0" y="0" width="960" height="540" fill="#daa520"></rect><path d="M0 348L22.8 342.7C45.7 337.3 91.3 326.7 137 328.8C182.7 331 228.3 346 274 356C319.7 366 365.3 371 411.2 377.8C457 384.7 503 393.3 548.8 389.5C594.7 385.7 640.3 369.3 686 356.3C731.7 343.3 777.3 333.7 823 331.2C868.7 328.7 914.3 333.3 937.2 335.7L960 338L960 541L937.2 541C914.3 541 868.7 541 823 541C777.3 541 731.7 541 686 541C640.3 541 594.7 541 548.8 541C503 541 457 541 411.2 541C365.3 541 319.7 541 274 541C228.3 541 182.7 541 137 541C91.3 541 45.7 541 22.8 541L0 541Z" fill="#fae169"></path><path d="M0 408L22.8 401.3C45.7 394.7 91.3 381.3 137 379.8C182.7 378.3 228.3 388.7 274 397.5C319.7 406.3 365.3 413.7 411.2 410C457 406.3 503 391.7 548.8 390.2C594.7 388.7 640.3 400.3 686 405C731.7 409.7 777.3 407.3 823 399.2C868.7 391 914.3 377 937.2 370L960 363L960 541L937.2 541C914.3 541 868.7 541 823 541C777.3 541 731.7 541 686 541C640.3 541 594.7 541 548.8 541C503 541 457 541 411.2 541C365.3 541 319.7 541 274 541C228.3 541 182.7 541 137 541C91.3 541 45.7 541 22.8 541L0 541Z" fill="#f2bb4b"></path><path d="M0 453L22.8 443.8C45.7 434.7 91.3 416.3 137 408.3C182.7 400.3 228.3 402.7 274 409.8C319.7 417 365.3 429 411.2 430.3C457 431.7 503 422.3 548.8 424.8C594.7 427.3 640.3 441.7 686 439.7C731.7 437.7 777.3 419.3 823 412.3C868.7 405.3 914.3 409.7 937.2 411.8L960 414L960 541L937.2 541C914.3 541 868.7 541 823 541C777.3 541 731.7 541 686 541C640.3 541 594.7 541 548.8 541C503 541 457 541 411.2 541C365.3 541 319.7 541 274 541C228.3 541 182.7 541 137 541C91.3 541 45.7 541 22.8 541L0 541Z" fill="#e79435"></path><path d="M0 476L22.8 476.2C45.7 476.3 91.3 476.7 137 469.7C182.7 462.7 228.3 448.3 274 443C319.7 437.7 365.3 441.3 411.2 444.7C457 448 503 451 548.8 453.2C594.7 455.3 640.3 456.7 686 457.2C731.7 457.7 777.3 457.3 823 460.3C868.7 463.3 914.3 469.7 937.2 472.8L960 476L960 541L937.2 541C914.3 541 868.7 541 823 541C777.3 541 731.7 541 686 541C640.3 541 594.7 541 548.8 541C503 541 457 541 411.2 541C365.3 541 319.7 541 274 541C228.3 541 182.7 541 137 541C91.3 541 45.7 541 22.8 541L0 541Z" fill="#d96d28"></path><path d="M0 507L22.8 501.7C45.7 496.3 91.3 485.7 137 482C182.7 478.3 228.3 481.7 274 488.2C319.7 494.7 365.3 504.3 411.2 507.7C457 511 503 508 548.8 505C594.7 502 640.3 499 686 494C731.7 489 777.3 482 823 484.2C868.7 486.3 914.3 497.7 937.2 503.3L960 509L960 541L937.2 541C914.3 541 868.7 541 823 541C777.3 541 731.7 541 686 541C640.3 541 594.7 541 548.8 541C503 541 457 541 411.2 541C365.3 541 319.7 541 274 541C228.3 541 182.7 541 137 541C91.3 541 45.7 541 22.8 541L0 541Z" fill="#c74324"></path></svg>