<svg id="visual" viewBox="0 0 675 900" width="675" height="900" xmlns="http://www.w3.org/2000/svg" xmlns:xlink="http://www.w3.org/1999/xlink" version="1.1"><path d="M0 172L61 145L123 199L184 127L245 118L307 118L368 235L430 253L491 136L552 253L614 82L675 226L675 0L614 0L552 0L491 0L430 0L368 0L307 0L245 0L184 0L123 0L61 0L0 0Z" fill="#daa520"></path><path d="M0 433L61 424L123 379L184 343L245 361L307 532L368 505L430 451L491 370L552 496L614 397L675 343L675 224L614 80L552 251L491 134L430 251L368 233L307 116L245 116L184 125L123 197L61 143L0 170Z" fill="#c5813a"></path><path d="M0 550L61 523L123 460L184 433L245 505L307 595L368 568L430 514L491 523L552 613L614 541L675 415L675 341L614 395L552 494L491 368L430 449L368 503L307 530L245 359L184 341L123 377L61 422L0 431Z" fill="#a26547"></path><path d="M0 757L61 811L123 829L184 802L245 820L307 784L368 838L430 784L491 802L552 820L614 757L675 784L675 413L614 539L552 611L491 521L430 512L368 566L307 593L245 503L184 431L123 458L61 521L0 548Z" fill="#745049"></path><path d="M0 901L61 901L123 901L184 901L245 901L307 901L368 901L430 901L491 901L552 901L614 901L675 901L675 782L614 755L552 818L491 800L430 782L368 836L307 782L245 818L184 800L123 827L61 809L0 755Z" fill="#403f3f"></path></svg>