<svg xmlns="http://www.w3.org/2000/svg" viewBox="0 -2 16 16" width="24" height="24">
    <path fill="#181717" d="M8 0C3.58 0 0 3.582 0 8c0 3.535 2.281 6.533 5.447 7.59.398.074.54-.172.54-.384 0-.19-.007-.693-.01-1.357-2.215.48-2.678-1.066-2.678-1.066-.361-.917-.881-1.162-.881-1.162-.718-.492.054-.483.054-.483.793.055 1.209.814 1.209.814.705 1.208 1.849.859 2.296.658.07-.509.276-.858.502-1.054-1.757-.198-3.605-.879-3.605-3.913 0-.865.309-1.575.816-2.129-.082-.198-.354-.998.077-2.082 0 0 .659-.211 2.161.805A7.58 7.58 0 018 4.907c.689.004 1.384.093 2.037.272 1.502-.916 2.16-.805 2.16-.805.432 1.084.16 1.884.078 2.082.508.554.815 1.264.815 2.129 0 3.042-1.852 3.713-3.613 3.908.284.245.535.727.535 1.467 0 1.061-.01 1.917-.01 2.177 0 .212.14.459.543.383A7.96 7.96 0 0016 8c0-4.418-3.582-8-8-8z"/>
</svg>