<svg id="visual" viewBox="0 0 900 600" width="900" height="600" xmlns="http://www.w3.org/2000/svg" xmlns:xlink="http://www.w3.org/1999/xlink" version="1.1"><g stroke-width="1" stroke-linejoin="bevel"><path d="M388 311L314 285L337 400Z" fill="#98bcdd" stroke="#98bcdd"></path><path d="M337 400L394 404L388 311Z" fill="#c4c4c4" stroke="#c4c4c4"></path><path d="M337 400L394 471L394 404Z" fill="#c4c4c4" stroke="#c4c4c4"></path><path d="M214 472L335 484L337 400Z" fill="#bdc3c8" stroke="#bdc3c8"></path><path d="M337 400L335 484L394 471Z" fill="#afc0d1" stroke="#afc0d1"></path><path d="M437 178L283 199L314 285Z" fill="#c4c4c4" stroke="#c4c4c4"></path><path d="M314 285L163 339L337 400Z" fill="#b7c1cc" stroke="#b7c1cc"></path><path d="M394 471L464 431L394 404Z" fill="#85b9e5" stroke="#85b9e5"></path><path d="M394 404L464 431L388 311Z" fill="#bdc3c8" stroke="#bdc3c8"></path><path d="M187 229L163 339L314 285Z" fill="#c4c4c4" stroke="#c4c4c4"></path><path d="M163 339L214 472L337 400Z" fill="#b7c1cc" stroke="#b7c1cc"></path><path d="M283 199L187 229L314 285Z" fill="#a0bdd9" stroke="#a0bdd9"></path><path d="M522 273L437 178L388 311Z" fill="#85b9e5" stroke="#85b9e5"></path><path d="M388 311L437 178L314 285Z" fill="#a8bed5" stroke="#a8bed5"></path><path d="M163 339L160 426L214 472Z" fill="#8fbae1" stroke="#8fbae1"></path><path d="M464 431L522 273L388 311Z" fill="#6fb6ed" stroke="#6fb6ed"></path><path d="M378 123L298 139L283 199Z" fill="#98bcdd" stroke="#98bcdd"></path><path d="M283 199L180 96L187 229Z" fill="#6fb6ed" stroke="#6fb6ed"></path><path d="M163 339L135 416L160 426Z" fill="#85b9e5" stroke="#85b9e5"></path><path d="M97 600L216 600L214 472Z" fill="#85b9e5" stroke="#85b9e5"></path><path d="M123 284L135 416L163 339Z" fill="#b7c1cc" stroke="#b7c1cc"></path><path d="M394 471L491 493L464 431Z" fill="#85b9e5" stroke="#85b9e5"></path><path d="M464 431L578 296L522 273Z" fill="#6fb6ed" stroke="#6fb6ed"></path><path d="M417 600L491 493L394 471Z" fill="#b7c1cc" stroke="#b7c1cc"></path><path d="M187 229L123 284L163 339Z" fill="#afc0d1" stroke="#afc0d1"></path><path d="M437 178L378 123L283 199Z" fill="#c4c4c4" stroke="#c4c4c4"></path><path d="M608 398L578 296L464 431Z" fill="#8fbae1" stroke="#8fbae1"></path><path d="M522 273L522 170L437 178Z" fill="#afc0d1" stroke="#afc0d1"></path><path d="M437 178L537 113L378 123Z" fill="#6fb6ed" stroke="#6fb6ed"></path><path d="M611 231L522 170L522 273Z" fill="#98bcdd" stroke="#98bcdd"></path><path d="M216 600L294 600L214 472Z" fill="#c4c4c4" stroke="#c4c4c4"></path><path d="M214 472L294 600L335 484Z" fill="#bdc3c8" stroke="#bdc3c8"></path><path d="M335 484L417 600L394 471Z" fill="#85b9e5" stroke="#85b9e5"></path><path d="M294 600L417 600L335 484Z" fill="#afc0d1" stroke="#afc0d1"></path><path d="M491 493L608 398L464 431Z" fill="#afc0d1" stroke="#afc0d1"></path><path d="M597 514L608 398L491 493Z" fill="#c4c4c4" stroke="#c4c4c4"></path><path d="M60 513L214 472L160 426Z" fill="#98bcdd" stroke="#98bcdd"></path><path d="M232 0L180 96L298 139Z" fill="#c4c4c4" stroke="#c4c4c4"></path><path d="M298 139L180 96L283 199Z" fill="#bdc3c8" stroke="#bdc3c8"></path><path d="M187 229L68 199L123 284Z" fill="#a0bdd9" stroke="#a0bdd9"></path><path d="M417 600L471 600L491 493Z" fill="#7bb7e9" stroke="#7bb7e9"></path><path d="M578 296L611 231L522 273Z" fill="#6fb6ed" stroke="#6fb6ed"></path><path d="M704 264L611 231L578 296Z" fill="#85b9e5" stroke="#85b9e5"></path><path d="M180 96L68 199L187 229Z" fill="#98bcdd" stroke="#98bcdd"></path><path d="M0 421L60 513L135 416Z" fill="#85b9e5" stroke="#85b9e5"></path><path d="M611 231L537 113L522 170Z" fill="#7bb7e9" stroke="#7bb7e9"></path><path d="M522 170L537 113L437 178Z" fill="#a0bdd9" stroke="#a0bdd9"></path><path d="M378 123L300 0L298 139Z" fill="#8fbae1" stroke="#8fbae1"></path><path d="M471 600L597 514L491 493Z" fill="#a0bdd9" stroke="#a0bdd9"></path><path d="M0 421L135 416L123 284Z" fill="#afc0d1" stroke="#afc0d1"></path><path d="M135 416L60 513L160 426Z" fill="#6fb6ed" stroke="#6fb6ed"></path><path d="M677 483L668 370L608 398Z" fill="#8fbae1" stroke="#8fbae1"></path><path d="M608 398L668 370L578 296Z" fill="#7bb7e9" stroke="#7bb7e9"></path><path d="M386 0L300 0L378 123Z" fill="#a8bed5" stroke="#a8bed5"></path><path d="M68 199L0 274L123 284Z" fill="#6fb6ed" stroke="#6fb6ed"></path><path d="M491 0L386 0L378 123Z" fill="#c4c4c4" stroke="#c4c4c4"></path><path d="M0 274L0 421L123 284Z" fill="#c4c4c4" stroke="#c4c4c4"></path><path d="M119 0L80 103L180 96Z" fill="#afc0d1" stroke="#afc0d1"></path><path d="M180 96L80 103L68 199Z" fill="#a8bed5" stroke="#a8bed5"></path><path d="M68 199L0 221L0 274Z" fill="#b7c1cc" stroke="#b7c1cc"></path><path d="M60 513L97 600L214 472Z" fill="#a0bdd9" stroke="#a0bdd9"></path><path d="M0 600L97 600L60 513Z" fill="#85b9e5" stroke="#85b9e5"></path><path d="M300 0L232 0L298 139Z" fill="#c4c4c4" stroke="#c4c4c4"></path><path d="M0 114L0 221L68 199Z" fill="#85b9e5" stroke="#85b9e5"></path><path d="M630 600L677 483L597 514Z" fill="#7bb7e9" stroke="#7bb7e9"></path><path d="M597 514L677 483L608 398Z" fill="#7bb7e9" stroke="#7bb7e9"></path><path d="M0 421L0 494L60 513Z" fill="#afc0d1" stroke="#afc0d1"></path><path d="M561 0L491 0L537 113Z" fill="#98bcdd" stroke="#98bcdd"></path><path d="M537 113L491 0L378 123Z" fill="#c4c4c4" stroke="#c4c4c4"></path><path d="M728 223L704 264L819 335Z" fill="#85b9e5" stroke="#85b9e5"></path><path d="M668 370L704 264L578 296Z" fill="#b7c1cc" stroke="#b7c1cc"></path><path d="M611 231L598 61L537 113Z" fill="#bdc3c8" stroke="#bdc3c8"></path><path d="M689 81L598 61L611 231Z" fill="#afc0d1" stroke="#afc0d1"></path><path d="M471 600L630 600L597 514Z" fill="#8fbae1" stroke="#8fbae1"></path><path d="M232 0L119 0L180 96Z" fill="#afc0d1" stroke="#afc0d1"></path><path d="M80 103L0 114L68 199Z" fill="#bdc3c8" stroke="#bdc3c8"></path><path d="M0 0L0 114L80 103Z" fill="#bdc3c8" stroke="#bdc3c8"></path><path d="M598 61L561 0L537 113Z" fill="#b7c1cc" stroke="#b7c1cc"></path><path d="M704 264L728 223L611 231Z" fill="#7bb7e9" stroke="#7bb7e9"></path><path d="M598 61L685 0L561 0Z" fill="#a0bdd9" stroke="#a0bdd9"></path><path d="M778 196L728 223L819 335Z" fill="#b7c1cc" stroke="#b7c1cc"></path><path d="M0 494L0 600L60 513Z" fill="#8fbae1" stroke="#8fbae1"></path><path d="M630 600L686 600L677 483Z" fill="#7bb7e9" stroke="#7bb7e9"></path><path d="M819 335L704 264L668 370Z" fill="#a0bdd9" stroke="#a0bdd9"></path><path d="M728 223L689 81L611 231Z" fill="#bdc3c8" stroke="#bdc3c8"></path><path d="M819 335L668 370L834 394Z" fill="#98bcdd" stroke="#98bcdd"></path><path d="M728 223L778 196L689 81Z" fill="#98bcdd" stroke="#98bcdd"></path><path d="M119 0L0 0L80 103Z" fill="#b7c1cc" stroke="#b7c1cc"></path><path d="M834 394L668 370L677 483Z" fill="#6fb6ed" stroke="#6fb6ed"></path><path d="M795 0L685 0L689 81Z" fill="#6fb6ed" stroke="#6fb6ed"></path><path d="M689 81L685 0L598 61Z" fill="#8fbae1" stroke="#8fbae1"></path><path d="M686 600L805 508L677 483Z" fill="#8fbae1" stroke="#8fbae1"></path><path d="M805 508L834 394L677 483Z" fill="#6fb6ed" stroke="#6fb6ed"></path><path d="M686 600L780 600L805 508Z" fill="#c4c4c4" stroke="#c4c4c4"></path><path d="M900 99L798 94L778 196Z" fill="#98bcdd" stroke="#98bcdd"></path><path d="M778 196L798 94L689 81Z" fill="#85b9e5" stroke="#85b9e5"></path><path d="M900 217L778 196L819 335Z" fill="#98bcdd" stroke="#98bcdd"></path><path d="M900 420L900 299L834 394Z" fill="#7bb7e9" stroke="#7bb7e9"></path><path d="M834 394L900 299L819 335Z" fill="#98bcdd" stroke="#98bcdd"></path><path d="M900 420L834 394L805 508Z" fill="#a8bed5" stroke="#a8bed5"></path><path d="M900 504L900 420L805 508Z" fill="#a0bdd9" stroke="#a0bdd9"></path><path d="M900 0L795 0L798 94Z" fill="#c4c4c4" stroke="#c4c4c4"></path><path d="M798 94L795 0L689 81Z" fill="#c4c4c4" stroke="#c4c4c4"></path><path d="M900 299L900 217L819 335Z" fill="#85b9e5" stroke="#85b9e5"></path><path d="M900 600L900 504L805 508Z" fill="#c4c4c4" stroke="#c4c4c4"></path><path d="M900 217L900 99L778 196Z" fill="#8fbae1" stroke="#8fbae1"></path><path d="M780 600L900 600L805 508Z" fill="#85b9e5" stroke="#85b9e5"></path><path d="M900 99L900 0L798 94Z" fill="#7bb7e9" stroke="#7bb7e9"></path></g></svg>