<svg id="visual" viewBox="0 0 675 900" width="675" height="900" xmlns="http://www.w3.org/2000/svg" xmlns:xlink="http://www.w3.org/1999/xlink" version="1.1"><path d="M0 136L61 208L123 82L184 91L245 136L307 154L368 244L430 136L491 118L552 208L614 163L675 172L675 0L614 0L552 0L491 0L430 0L368 0L307 0L245 0L184 0L123 0L61 0L0 0Z" fill="#cccccc"></path><path d="M0 460L61 424L123 514L184 343L245 424L307 343L368 424L430 271L491 406L552 424L614 469L675 469L675 170L614 161L552 206L491 116L430 134L368 242L307 152L245 134L184 89L123 80L61 206L0 134Z" fill="#c1bebe"></path><path d="M0 604L61 514L123 586L184 451L245 478L307 487L368 541L430 343L491 487L552 496L614 568L675 559L675 467L614 467L552 422L491 404L430 269L368 422L307 341L245 422L184 341L123 512L61 422L0 458Z" fill="#b7b0b0"></path><path d="M0 802L61 721L123 775L184 793L245 811L307 757L368 838L430 730L491 811L552 802L614 829L675 793L675 557L614 566L552 494L491 485L430 341L368 539L307 485L245 476L184 449L123 584L61 512L0 602Z" fill="#ada2a2"></path><path d="M0 901L61 901L123 901L184 901L245 901L307 901L368 901L430 901L491 901L552 901L614 901L675 901L675 791L614 827L552 800L491 809L430 728L368 836L307 755L245 809L184 791L123 773L61 719L0 800Z" fill="#a39595"></path></svg>